# Tiled2Unity generated file. Do not modify by hand.
# Wavefront file for 'lvl_01_mesh_0003.obj'

# Vertices (Count = 144)
v -12.64 -8.16 0
v -12.8 -8.16 0
v -12.8 -8 0
v -12.64 -8 0
v -12.8 -8.16 0
v -12.96 -8.16 0
v -12.96 -8 0
v -12.8 -8 0
v -12.96 -8.16 0
v -13.12 -8.16 0
v -13.12 -8 0
v -12.96 -8 0
v -8.32 -8.32 0
v -8.48 -8.32 0
v -8.48 -8.16 0
v -8.32 -8.16 0
v -4.32 -8.48 0
v -4.48 -8.48 0
v -4.48 -8.32 0
v -4.32 -8.32 0
v -4.64 -8.48 0
v -4.8 -8.48 0
v -4.8 -8.32 0
v -4.64 -8.32 0
v -8.32 -8.48 0
v -8.48 -8.48 0
v -8.48 -8.32 0
v -8.32 -8.32 0
v -9.28 -8.96 0
v -9.44 -8.96 0
v -9.44 -8.8 0
v -9.28 -8.8 0
v -9.28 -9.12 0
v -9.44 -9.12 0
v -9.44 -8.96 0
v -9.28 -8.96 0
v -9.28 -9.28 0
v -9.44 -9.28 0
v -9.44 -9.12 0
v -9.28 -9.12 0
v -8 -9.44 0
v -8.16 -9.44 0
v -8.16 -9.28 0
v -8 -9.28 0
v -8.16 -9.44 0
v -8.32 -9.44 0
v -8.32 -9.28 0
v -8.16 -9.28 0
v -9.28 -9.44 0
v -9.44 -9.44 0
v -9.44 -9.28 0
v -9.28 -9.28 0
v -12.16 -10.4 0
v -12.32 -10.4 0
v -12.32 -10.24 0
v -12.16 -10.24 0
v -12.32 -10.4 0
v -12.48 -10.4 0
v -12.48 -10.24 0
v -12.32 -10.24 0
v -12.16 -10.56 0
v -12.32 -10.56 0
v -12.32 -10.4 0
v -12.16 -10.4 0
v -12.32 -10.56 0
v -12.48 -10.56 0
v -12.48 -10.4 0
v -12.32 -10.4 0
v -12.16 -10.72 0
v -12.32 -10.72 0
v -12.32 -10.56 0
v -12.16 -10.56 0
v -12.32 -10.72 0
v -12.48 -10.72 0
v -12.48 -10.56 0
v -12.32 -10.56 0
v -12.16 -10.88 0
v -12.32 -10.88 0
v -12.32 -10.72 0
v -12.16 -10.72 0
v -12.32 -10.88 0
v -12.48 -10.88 0
v -12.48 -10.72 0
v -12.32 -10.72 0
v -12.16 -11.04 0
v -12.32 -11.04 0
v -12.32 -10.88 0
v -12.16 -10.88 0
v -12.32 -11.04 0
v -12.48 -11.04 0
v -12.48 -10.88 0
v -12.32 -10.88 0
v -11.84 -11.2 0
v -12 -11.2 0
v -12 -11.04 0
v -11.84 -11.04 0
v -12.16 -11.2 0
v -12.32 -11.2 0
v -12.32 -11.04 0
v -12.16 -11.04 0
v -12.32 -11.2 0
v -12.48 -11.2 0
v -12.48 -11.04 0
v -12.32 -11.04 0
v -11.84 -11.36 0
v -12 -11.36 0
v -12 -11.2 0
v -11.84 -11.2 0
v -12.16 -11.36 0
v -12.32 -11.36 0
v -12.32 -11.2 0
v -12.16 -11.2 0
v -12.32 -11.36 0
v -12.48 -11.36 0
v -12.48 -11.2 0
v -12.32 -11.2 0
v -11.84 -11.52 0
v -12 -11.52 0
v -12 -11.36 0
v -11.84 -11.36 0
v -11.84 -11.68 0
v -12 -11.68 0
v -12 -11.52 0
v -11.84 -11.52 0
v -11.84 -11.84 0
v -12 -11.84 0
v -12 -11.68 0
v -11.84 -11.68 0
v -11.84 -12 0
v -12 -12 0
v -12 -11.84 0
v -11.84 -11.84 0
v -11.84 -12.16 0
v -12 -12.16 0
v -12 -12 0
v -11.84 -12 0
v -11.84 -12.32 0
v -12 -12.32 0
v -12 -12.16 0
v -11.84 -12.16 0
v -11.84 -12.48 0
v -12 -12.48 0
v -12 -12.32 0
v -11.84 -12.32 0

# Texture cooridinates (Count = 24)
vt 0.4 0.5217391
vt 0.44 0.5217391
vt 0.44 0.5652174
vt 0.4 0.5652174
vt 0.48 0.5217391
vt 0.48 0.5652174
vt 0.28 0.6521739
vt 0.32 0.6521739
vt 0.32 0.6956522
vt 0.28 0.6956522
vt 0.04 0.8260869
vt 0.08 0.8260869
vt 0.08 0.8695652
vt 0.04 0.8695652
vt 0.28 0.5217391
vt 0.32 0.5217391
vt 0.32 0.5652174
vt 0.28 0.5652174
vt 0.4 0.8260869
vt 0.44 0.8260869
vt 0.44 0.8695652
vt 0.4 0.8695652
vt 0.48 0.8260869
vt 0.48 0.8695652

# Normal
vn 0 0 -1

# Mesh description
g lvl_01_mesh_0003

# Faces
f 1/1/1 2/2/1 3/3/1 4/4/1
f 5/2/1 6/5/1 7/6/1 8/3/1
f 9/2/1 10/5/1 11/6/1 12/3/1
f 13/7/1 14/8/1 15/9/1 16/10/1
f 17/11/1 18/12/1 19/13/1 20/14/1
f 21/11/1 22/12/1 23/13/1 24/14/1
f 25/7/1 26/8/1 27/9/1 28/10/1
f 29/15/1 30/16/1 31/17/1 32/18/1
f 33/15/1 34/16/1 35/17/1 36/18/1
f 37/15/1 38/16/1 39/17/1 40/18/1
f 41/19/1 42/20/1 43/21/1 44/22/1
f 45/20/1 46/23/1 47/24/1 48/21/1
f 49/15/1 50/16/1 51/17/1 52/18/1
f 53/15/1 54/16/1 55/17/1 56/18/1
f 57/15/1 58/16/1 59/17/1 60/18/1
f 61/15/1 62/16/1 63/17/1 64/18/1
f 65/15/1 66/16/1 67/17/1 68/18/1
f 69/15/1 70/16/1 71/17/1 72/18/1
f 73/15/1 74/16/1 75/17/1 76/18/1
f 77/15/1 78/16/1 79/17/1 80/18/1
f 81/15/1 82/16/1 83/17/1 84/18/1
f 85/15/1 86/16/1 87/17/1 88/18/1
f 89/15/1 90/16/1 91/17/1 92/18/1
f 93/15/1 94/16/1 95/17/1 96/18/1
f 97/15/1 98/16/1 99/17/1 100/18/1
f 101/15/1 102/16/1 103/17/1 104/18/1
f 105/15/1 106/16/1 107/17/1 108/18/1
f 109/15/1 110/16/1 111/17/1 112/18/1
f 113/15/1 114/16/1 115/17/1 116/18/1
f 117/15/1 118/16/1 119/17/1 120/18/1
f 121/15/1 122/16/1 123/17/1 124/18/1
f 125/15/1 126/16/1 127/17/1 128/18/1
f 129/15/1 130/16/1 131/17/1 132/18/1
f 133/15/1 134/16/1 135/17/1 136/18/1
f 137/15/1 138/16/1 139/17/1 140/18/1
f 141/15/1 142/16/1 143/17/1 144/18/1

